<?xml version="1.0" encoding="utf-8"?>
<!-- Generator: Adobe Illustrator 21.1.0, SVG Export Plug-In . SVG Version: 6.00 Build 0)  -->
<svg version="1.1" id="Layer_1" xmlns="http://www.w3.org/2000/svg" xmlns:xlink="http://www.w3.org/1999/xlink" x="0px" y="0px"
	 viewBox="0 0 1280 1024" style="enable-background:new 0 0 1280 1024;" xml:space="preserve">
<style type="text/css">
	.st0{fill:#AFAFAF;stroke:#000000;stroke-width:15;stroke-miterlimit:10;}
	.st1{fill:#E2DD30;stroke:#000000;stroke-width:15;stroke-miterlimit:10;}
	.st2{fill:#383836;stroke:#000000;stroke-width:15;stroke-miterlimit:10;}
	.st3{fill:#FF0000;stroke:#000000;stroke-width:15;stroke-miterlimit:10;}
	.st4{opacity:0.25;}
</style>
<polygon class="st0" points="758,607.7 693,664.7 509.6,455.7 514.9,432.3 491.6,435 252.9,162.9 231.8,73.4 317.9,106 "/>
<rect x="762.9" y="580.8" transform="matrix(0.7518 -0.6594 0.6594 0.7518 -198.5117 674.1931)" class="st0" width="66.7" height="39.9"/>
<rect x="626.7" y="632.1" transform="matrix(0.7518 -0.6594 0.6594 0.7518 -245.0394 646.8287)" class="st1" width="219.8" height="33.6"/>
<rect x="812" y="632.8" transform="matrix(0.7518 -0.6594 0.6594 0.7518 -304.7676 758.6185)" class="st2" width="86.4" height="302.6"/>
<polygon class="st3" points="935.9,810.5 902.9,904 854.7,849.1 887.7,755.6 "/>
<polygon class="st3" points="840.4,701.7 807.4,795.1 759.3,740.2 792.3,646.8 "/>
<polygon class="st4" points="949.6,891.7 725.5,636.2 231.8,73.4 317.9,106 718.5,561.1 753.2,602.2 753.2,602.2 806,571 823,576 
	826.5,600.8 784.3,637.7 982.1,863.2 "/>
</svg>
